<svg xmlns="http://www.w3.org/2000/svg" width="89.99" height="79.54" viewBox="0 0 89.99 79.54">
	<style type="text/css">
		.st0{fill:#000000;}
	</style>
	<path class="st0" d="M21.89,69.6C15.59,69.6 10.47,64.48 10.47,58.18C10.47,51.88 15.59,46.76 21.89,46.76C28.18,46.76 33.31,51.88 33.31,58.18C33.31,64.48 28.18,69.6 21.89,69.6M21.89,44.99C14.62,44.99 8.7,50.9 8.7,58.18C8.7,65.45 14.62,71.37 21.89,71.37C29.16,71.37 35.08,65.45 35.08,58.18C35.08,50.9 29.16,44.99 21.89,44.99"/>
	<path class="st0" d="M21.89,76.05C12.03,76.05 4.01,68.03 4.01,58.18C4.01,48.32 12.03,40.3 21.89,40.3C31.75,40.3 39.77,48.32 39.77,58.18C39.77,68.03 31.75,76.05 21.89,76.05M42.4,57.07C41.92,57.07 41.54,57.45 41.52,57.93C41.5,56.09 41.22,54.32 40.73,52.63C40.84,53.01 41.19,53.25 41.57,53.25C41.65,53.25 41.73,53.24 41.81,53.22C42.29,53.08 42.55,52.59 42.42,52.12C42.07,50.95 41.62,49.8 41.07,48.69C40.86,48.26 40.34,48.08 39.89,48.3C39.45,48.51 39.27,49.04 39.49,49.48C39.5,49.51 39.51,49.54 39.52,49.57C38.7,47.89 37.64,46.34 36.38,44.96C36.41,44.98 36.43,45 36.45,45.02C36.62,45.21 36.86,45.31 37.1,45.31C37.31,45.31 37.53,45.24 37.7,45.08C38.06,44.75 38.09,44.19 37.76,43.83C36.94,42.93 36.04,42.08 35.07,41.33C34.68,41.03 34.13,41.09 33.83,41.48C33.53,41.86 33.6,42.41 33.98,42.72C32.58,41.62 31.03,40.71 29.36,40.01C29.46,40.05 29.55,40.07 29.65,40.07C30,40.07 30.33,39.86 30.47,39.52C30.65,39.07 30.44,38.55 29.98,38.37C28.84,37.9 27.66,37.53 26.47,37.27C26,37.17 25.52,37.47 25.42,37.95C25.32,38.42 25.61,38.87 26.07,38.99C24.72,38.7 23.33,38.53 21.89,38.53C21.48,38.53 21.09,38.57 20.69,38.59C20.7,38.59 20.7,38.59 20.71,38.59C21.19,38.56 21.57,38.14 21.54,37.65C21.51,37.16 21.06,36.81 20.6,36.82C19.38,36.89 18.16,37.07 16.96,37.35C16.49,37.46 16.19,37.94 16.3,38.41C16.4,38.82 16.76,39.1 17.17,39.1C17.23,39.1 17.3,39.09 17.37,39.07C17.38,39.07 17.38,39.07 17.39,39.07C15.61,39.49 13.91,40.14 12.35,41.01C12.76,40.77 12.91,40.25 12.68,39.82C12.44,39.39 11.91,39.24 11.47,39.48C10.4,40.08 9.38,40.77 8.43,41.54C8.05,41.85 7.99,42.41 8.3,42.79C8.48,43 8.73,43.12 8.99,43.12C9.18,43.12 9.37,43.05 9.53,42.93C8.12,44.07 6.88,45.4 5.84,46.89C5.84,46.88 5.85,46.87 5.85,46.86C6.14,46.46 6.04,45.91 5.64,45.62C5.24,45.34 4.69,45.44 4.41,45.84C3.7,46.85 3.07,47.91 2.55,49.01C2.34,49.45 2.53,49.98 2.97,50.19C3.1,50.25 3.22,50.27 3.35,50.27C3.68,50.27 4,50.09 4.15,49.77C4.16,49.74 4.18,49.72 4.2,49.69C3.4,51.33 2.84,53.1 2.53,54.96C2.53,54.95 2.53,54.94 2.53,54.92C2.61,54.44 2.28,53.98 1.8,53.9C1.33,53.83 0.86,54.15 0.78,54.63C0.59,55.8 0.49,56.99 0.49,58.18L0.49,58.29C0.49,58.77 0.89,59.12 1.38,59.12C1.85,59.12 2.22,58.69 2.25,58.22C2.25,60.1 2.53,61.91 3.03,63.62C2.88,63.16 2.39,62.89 1.93,63.03C1.46,63.16 1.19,63.65 1.33,64.12C1.67,65.3 2.12,66.46 2.65,67.55C2.8,67.86 3.12,68.05 3.45,68.05C3.58,68.05 3.71,68.02 3.83,67.96C4.27,67.74 4.46,67.21 4.24,66.78C4.23,66.75 4.22,66.72 4.21,66.69C5.03,68.38 6.08,69.93 7.33,71.32C7.31,71.29 7.28,71.28 7.26,71.25C6.93,70.89 6.37,70.86 6.01,71.18C5.64,71.51 5.61,72.07 5.94,72.44C6.76,73.35 7.66,74.19 8.61,74.95C8.77,75.08 8.97,75.14 9.16,75.14C9.42,75.14 9.68,75.03 9.85,74.81C10.16,74.42 10.1,73.87 9.71,73.57C9.7,73.57 9.7,73.56 9.69,73.55C11.1,74.67 12.66,75.61 14.34,76.31C13.9,76.14 13.39,76.34 13.21,76.79C13.02,77.24 13.24,77.75 13.69,77.94C14.83,78.41 16.01,78.79 17.2,79.05C17.26,79.07 17.33,79.08 17.39,79.08C17.79,79.08 18.16,78.79 18.25,78.38C18.36,77.91 18.06,77.45 17.6,77.34C18.98,77.65 20.41,77.82 21.89,77.82C22.26,77.82 22.63,77.79 22.99,77.77C22.98,77.77 22.97,77.77 22.96,77.77C22.48,77.8 22.1,78.22 22.13,78.7C22.16,79.18 22.55,79.54 23.01,79.54L23.06,79.54C24.29,79.47 25.51,79.3 26.7,79.03C27.18,78.92 27.47,78.45 27.37,77.97C27.25,77.49 26.78,77.22 26.31,77.3C28.08,76.89 29.78,76.25 31.33,75.4C30.92,75.64 30.77,76.16 31,76.58C31.16,76.87 31.46,77.04 31.77,77.04C31.92,77.04 32.06,77 32.2,76.93C33.27,76.34 34.29,75.65 35.25,74.89C35.63,74.58 35.7,74.02 35.39,73.64C35.08,73.26 34.54,73.2 34.16,73.5C35.57,72.36 36.82,71.03 37.88,69.55C37.88,69.56 37.87,69.57 37.86,69.58C37.58,69.98 37.67,70.53 38.07,70.81C38.22,70.92 38.4,70.98 38.58,70.98C38.86,70.98 39.13,70.85 39.3,70.61C40.02,69.61 40.65,68.55 41.18,67.45C41.39,67 41.2,66.48 40.77,66.26C40.32,66.05 39.79,66.23 39.58,66.68C39.57,66.7 39.56,66.72 39.55,66.74C40.34,65.11 40.92,63.36 41.24,61.51C41.23,61.52 41.23,61.53 41.23,61.54C41.15,62.02 41.47,62.48 41.96,62.56C42,62.57 42.06,62.57 42.1,62.57C42.53,62.57 42.9,62.27 42.97,61.84C43.18,60.63 43.29,59.4 43.29,58.18L43.29,57.95C43.28,57.46 42.89,57.07 42.4,57.07"/>
	<path class="st0" d="M71.76,71.54C67.93,71.54 64.81,68.42 64.81,64.59C64.81,60.76 67.93,57.64 71.76,57.64C75.59,57.64 78.7,60.76 78.7,64.59C78.7,68.42 75.59,71.54 71.76,71.54M71.76,55.87C66.95,55.87 63.04,59.78 63.04,64.59C63.04,69.4 66.95,73.31 71.76,73.31C76.57,73.31 80.47,69.4 80.47,64.59C80.47,59.78 76.56,55.87 71.76,55.87"/>
	<path class="st0" d="M80.01,52.86C77.67,51.21 74.84,50.21 71.76,50.21C68.55,50.21 65.61,51.3 63.22,53.09L52.19,53.09L52.3,54.07C52.44,55.32 52.51,56.44 52.51,57.51C52.51,58.97 51.32,60.17 49.85,60.17C48.39,60.17 47.2,58.97 47.2,57.51C47.2,43.73 35.99,32.51 22.2,32.51C16.33,32.51 10.62,34.59 6.13,38.38C5.04,39.28 3.29,39.13 2.39,38.05C1.44,36.93 1.59,35.25 2.71,34.31C4.4,32.89 6.33,31.62 8.44,30.54L8.93,30.3L8.93,4.42C8.93,2.96 10.12,1.77 11.58,1.77L39.9,1.77C41.81,1.77 42.43,3.94 42.58,4.63L49.83,33.62L62.02,33.62L62.02,18.58C62.02,11.06 66.64,9.09 70.87,8.87L70.87,10.71C69.52,11.05 67.33,12.55 67.33,18.58L67.33,33.62L86.64,33.62C87.26,33.62 87.72,33.82 87.99,34.2C88.29,34.62 88.31,35.27 88.05,35.97L82.84,50.13C82.4,51.34 81.24,52.41 80.01,52.86M84.37,64.59C84.37,71.55 78.71,77.2 71.76,77.2C64.8,77.2 59.15,71.55 59.15,64.59C59.15,60.65 61,57.17 63.84,54.86C64.69,54.16 65.62,53.55 66.64,53.09C68.21,52.39 69.93,51.98 71.76,51.98C73.58,51.98 75.3,52.39 76.87,53.09C77.83,53.52 78.7,54.09 79.52,54.73C82.45,57.04 84.37,60.58 84.37,64.59M84.5,50.74L89.71,36.58C90.17,35.33 90.07,34.09 89.44,33.19C88.84,32.32 87.84,31.85 86.64,31.85L69.1,31.85L69.1,18.58C69.1,12.55 71.37,12.38 71.63,12.38L72.64,12.51L72.64,7.07L71.75,7.07C67.46,7.07 60.25,8.57 60.25,18.58L60.25,31.85L51.21,31.85L44.3,4.23C43.74,1.62 42.05,0 39.9,0L11.58,0C9.14,0 7.16,1.98 7.16,4.42L7.16,29.22C5.11,30.3 3.24,31.56 1.57,32.96C-0.29,34.53 -0.53,37.32 1.03,39.19C2.53,40.98 5.46,41.24 7.26,39.73C11.44,36.22 16.74,34.28 22.2,34.28C35.01,34.28 45.43,44.71 45.43,57.51C45.43,59.95 47.41,61.94 49.86,61.94C52.29,61.94 54.28,59.95 54.28,57.51C54.28,56.67 54.24,55.79 54.16,54.86L61.24,54.86C58.86,57.42 57.38,60.83 57.38,64.59C57.38,72.52 63.83,78.97 71.76,78.97C79.69,78.97 86.14,72.52 86.14,64.59C86.14,60.42 84.32,56.69 81.48,54.06C82.82,53.32 83.98,52.16 84.5,50.74"/>
	<path class="st0" d="M16.01,24.77L16.01,8.84L36.34,8.84L40.42,24.77L16.01,24.77ZM14.24,7.07L14.24,26.54L42.7,26.54L37.72,7.07Z"/>
</svg>