<svg class="st0" xmlns="http://www.w3.org/2000/svg" width="22" height="14" viewBox="0 0 22 14">
	<style type="text/css">
		.st0{transform:rotate(180deg);}
	</style>
	<path fill="#ffc001"   d="M2.41,7L7.71,1.71C8.1,1.32 8.1,0.68 7.71,0.29C7.32,-0.09 6.68,-0.09 6.29,0.29L0.29,6.29C-0.09,6.68 -0.09,7.31 0.28,7.7L0.29,7.71L6.29,13.71C6.68,14.1 7.31,14.1 7.71,13.72L7.71,13.71C8.1,13.32 8.1,12.69 7.72,12.3L7.71,12.29ZM22,7C22,7.55 21.55,8 21,8L9.41,8L13.71,12.29C14.1,12.68 14.11,13.31 13.72,13.7L13.71,13.71C13.32,14.1 12.69,14.1 12.3,13.72L12.29,13.71L6.29,7.71C6.2,7.61 6.13,7.5 6.08,7.38C5.98,7.14 5.98,6.86 6.08,6.62C6.13,6.5 6.2,6.38 6.29,6.29L12.29,0.29C12.68,-0.09 13.32,-0.09 13.71,0.29C14.1,0.68 14.1,1.32 13.71,1.71L9.41,6L21,6C21.55,6 22,6.45 22,7"/>
</svg>