<svg xmlns="http://www.w3.org/2000/svg" width="89.67" height="28.55" viewBox="0 0 89.67 28.55">
	<style type="text/css">
		.st1{stroke:#000000;fill:none;stroke-width:1;stroke-linecap:round;}
		.st0{stroke:#000000;fill:none;stroke-width:1;}
	</style>
	<path class="st0" d="M21.49,11.39L13.92,11.39C13.64,11.39 13.42,11.17 13.42,10.89L13.42,6.18C13.42,5.91 13.64,5.68 13.92,5.68L21.49,5.68C21.77,5.68 21.99,5.91 21.99,6.18L21.99,10.89C21.99,11.17 21.77,11.39 21.49,11.39Z"/>
	<path class="st0" d="M9.56,22L1,22C0.72,22 0.5,21.77 0.5,21.5L0.5,4.88C0.5,4.61 0.72,4.38 1,4.38L9.56,4.38C9.84,4.38 10.06,4.61 10.06,4.88L10.06,21.49C10.06,21.77 9.84,22 9.56,22Z"/>
	<path class="st0" d="M34.48,11.39L26.91,11.39C26.63,11.39 26.41,11.17 26.41,10.89L26.41,6.18C26.41,5.91 26.63,5.68 26.91,5.68L34.48,5.68C34.76,5.68 34.98,5.91 34.98,6.18L34.98,10.89C34.98,11.17 34.76,11.39 34.48,11.39Z"/>
	<path class="st0" d="M47.48,11.39L39.9,11.39C39.62,11.39 39.4,11.17 39.4,10.89L39.4,6.18C39.4,5.91 39.62,5.68 39.9,5.68L47.48,5.68C47.75,5.68 47.98,5.91 47.98,6.18L47.98,10.89C47.98,11.17 47.75,11.39 47.48,11.39Z"/>
	<path class="st0" d="M60.46,11.39L52.89,11.39C52.61,11.39 52.39,11.17 52.39,10.89L52.39,6.18C52.39,5.91 52.61,5.68 52.89,5.68L60.46,5.68C60.74,5.68 60.96,5.91 60.96,6.18L60.96,10.89C60.96,11.17 60.74,11.39 60.46,11.39Z"/>
	<path class="st0" d="M73.16,11.39L65.58,11.39C65.3,11.39 65.08,11.17 65.08,10.89L65.08,6.18C65.08,5.91 65.3,5.68 65.58,5.68L73.16,5.68C73.43,5.68 73.66,5.91 73.66,6.18L73.66,10.89C73.66,11.17 73.43,11.39 73.16,11.39Z"/>
	<path class="st0" d="M7.42,4.38L7.42,22"/>
	<path class="st0" d="M84.75,2.49L84.75,11.73L85.56,11.98C87,12.43 87.98,13.76 87.98,15.27L87.98,21.38C87.98,22.48 87.07,23.39 85.96,23.39L85.89,23.39C85.48,23.39 85.12,23.09 85.07,22.68C84.72,19.57 82.07,17.15 78.87,17.15C75.73,17.15 73.14,19.45 72.69,22.46C72.61,22.99 72.16,23.39 71.62,23.39L31.17,23.39C30.67,23.39 30.25,23.03 30.19,22.54C29.77,19.49 27.16,17.14 24,17.14C20.85,17.14 18.25,19.47 17.82,22.51C17.75,23.01 17.31,23.39 16.8,23.39L2.51,23.39C1.4,23.39 0.5,22.48 0.5,21.37L0.5,2.49C0.5,1.39 1.39,0.49 2.5,0.49L86.89,0.49C88.05,0.49 88.26,2.15 87.13,2.44C86.98,2.47 86.82,2.49 86.65,2.49L79.42,2.49L79.42,11.73L84.75,11.73"/>
	<path class="st0" d="M24.02,18.73C26.59,18.73 28.67,20.82 28.67,23.39C28.67,25.96 26.59,28.05 24.02,28.05C21.44,28.05 19.36,25.96 19.36,23.39C19.36,20.82 21.44,18.73 24.02,18.73Z"/>
	<path class="st0" d="M24.02,21.31C25.16,21.31 26.09,22.24 26.09,23.39C26.09,24.54 25.16,25.46 24.02,25.46C22.87,25.46 21.94,24.54 21.94,23.39C21.94,22.24 22.87,21.31 24.02,21.31Z"/>
	<path class="st0" d="M78.83,21.31C79.98,21.31 80.91,22.24 80.91,23.39C80.91,24.54 79.98,25.46 78.83,25.46C77.69,25.46 76.76,24.54 76.76,23.39C76.76,22.24 77.69,21.31 78.83,21.31Z"/>
	<path class="st0" d="M78.83,18.73C81.4,18.73 83.49,20.82 83.49,23.39C83.49,25.96 81.4,28.05 78.83,28.05C76.26,28.05 74.18,25.96 74.18,23.39C74.18,20.82 76.26,18.73 78.83,18.73Z"/>
	<path class="st1" d="M87.24,20.68L88.65,20.68"/>
	<path class="st1" d="M89.17,14.08L89.17,15.71"/>
</svg>