<svg xmlns="http://www.w3.org/2000/svg" width="19.89" height="19.89" viewBox="0 0 19.89 19.89">
	<style type="text/css">
		.st0{fill:#888888;}
	</style>
	<path class="st0" d="M15,16L14,16C13.44,16 13,15.55 13,15C13,14.44 13.44,14 14,14L15,14C15.55,14 16,14.44 16,15C16,15.55 15.55,16 15,16M10.5,16L9.5,16C8.94,16 8.5,15.55 8.5,15C8.5,14.44 8.94,14 9.5,14L10.5,14C11.05,14 11.5,14.44 11.5,15C11.5,15.55 11.05,16 10.5,16M6,16L5,16C4.44,16 4,15.55 4,15C4,14.44 4.44,14 5,14L6,14C6.55,14 7,14.44 7,15C7,15.55 6.55,16 6,16M15,12L14,12C13.44,12 13,11.55 13,11C13,10.44 13.44,10 14,10L15,10C15.55,10 16,10.44 16,11C16,11.55 15.55,12 15,12M10.5,12L9.5,12C8.94,12 8.5,11.55 8.5,11C8.5,10.44 8.94,10 9.5,10L10.5,10C11.05,10 11.5,10.44 11.5,11C11.5,11.55 11.05,12 10.5,12M6,12L5,12C4.44,12 4,11.55 4,11C4,10.44 4.44,10 5,10L6,10C6.55,10 7,10.44 7,11C7,11.55 6.55,12 6,12M15,8L14,8C13.44,8 13,7.55 13,7C13,6.44 13.44,6 14,6L15,6C15.55,6 16,6.44 16,7C16,7.55 15.55,8 15,8M10.5,8L9.5,8C8.94,8 8.5,7.55 8.5,7C8.5,6.44 8.94,6 9.5,6L10.5,6C11.05,6 11.5,6.44 11.5,7C11.5,7.55 11.05,8 10.5,8M6,8L5,8C4.44,8 4,7.55 4,7C4,6.44 4.44,6 5,6L6,6C6.55,6 7,6.44 7,7C7,7.55 6.55,8 6,8M17.89,17.89L2,17.89L2,3L4,3L4,4C4,4.55 4.44,5 5,5C5.55,5 6,4.55 6,4L6,3L9,3L9,4C9,4.55 9.44,5 10,5C10.55,5 11,4.55 11,4L11,3L14,3L14,4C14,4.55 14.44,5 15,5C15.55,5 16,4.55 16,4L16,3L17.89,3ZM18.89,1L16,1C16,0.44 15.55,0 15,0C14.44,0 14,0.44 14,1L11,1C11,0.44 10.55,0 10,0C9.44,0 9,0.44 9,1L6,1C6,0.44 5.55,0 5,0C4.44,0 4,0.44 4,1L1,1C0.44,1 0,1.44 0,2L0,18.89C0,19.45 0.44,19.89 1,19.89L18.89,19.89C19.45,19.89 19.89,19.45 19.89,18.89L19.89,2C19.89,1.44 19.45,1 18.89,1"/>
</svg>