<svg xmlns="http://www.w3.org/2000/svg" width="70" height="49" viewBox="0 0 403.88 284.59">
	<style type="text/css">
		.st0{fill:#000000;}
	</style>
	<path class="st0" d="M298.07,187.49C302.6,191.31 305.21,196.91 305.21,202.85L305.21,240.43C305.21,245.06 301.44,248.84 296.8,248.84L106.95,248.84C102.32,248.84 98.55,245.06 98.55,240.43L98.55,202.85C98.55,196.91 101.15,191.31 105.69,187.49L116.66,178.25L119.55,180.77L130.32,190.31L203.73,190.31L273.44,190.31L284.2,180.78L287.09,178.25ZM297.05,272.14C297.05,273.55 295.9,274.7 294.48,274.7L274.46,274.7C273.05,274.7 271.9,273.55 271.9,272.14L271.9,258.73L296.8,258.73C296.89,258.73 296.97,258.71 297.05,258.71ZM132.69,272.14C132.69,273.55 131.54,274.7 130.13,274.7L110.11,274.7C108.69,274.7 107.54,273.55 107.54,272.14L107.54,258.73L132.69,258.73ZM138.57,134.39C141.26,127.57 146.16,124.39 154.01,124.39L203.73,124.39L249.75,124.39C257.59,124.39 262.5,127.57 265.26,134.58L281.01,170.38L269.69,180.42L203.73,180.42L134.07,180.42L122.74,170.38ZM322.76,165.06L322.76,155.18L298.46,155.18L288.83,163.59L274.39,130.77C270.2,120.13 261.68,114.5 249.75,114.5L203.73,114.5L154.01,114.5C142.08,114.5 133.56,120.13 129.44,130.59L114.92,163.59L105.29,155.18L81,155.18L81,165.06L101.58,165.06L109.13,171.66L99.32,179.93C92.54,185.64 88.66,193.99 88.66,202.85L88.66,240.43C88.66,247.12 92.28,252.97 97.65,256.16L97.65,272.14C97.65,279 103.24,284.59 110.11,284.59L130.13,284.59C137,284.59 142.58,279 142.58,272.14L142.58,258.73L262.01,258.73L262.01,272.14C262.01,279 267.59,284.59 274.46,284.59L294.48,284.59C301.35,284.59 306.94,279 306.94,272.14L306.94,255.65C311.85,252.37 315.1,246.77 315.1,240.43L315.1,202.85C315.1,193.99 311.21,185.63 304.44,179.93L294.63,171.66L302.17,165.06Z"/>
	<path class="st0" d="M243.83 230.48L159.93 230.48L159.93 240.37L243.83 240.37Z"/>
	<path class="st0" d="M166.61,219.73C167.36,217.85 166.88,215.7 165.41,214.31L150.39,200.13C148.41,198.25 145.28,198.34 143.4,200.33C141.53,202.31 141.62,205.44 143.6,207.32L149.58,212.96L127.81,212.96C117.52,212.96 113.9,202.68 113.73,202.18C112.88,199.59 110.1,198.19 107.51,199.02C104.92,199.86 103.49,202.65 104.33,205.25C104.56,205.96 110.23,222.85 127.81,222.85L162.02,222.85C164.04,222.85 165.86,221.61 166.61,219.73"/>
	<path class="st0" d="M275.95,212.96L254.18,212.96L260.15,207.32C262.14,205.44 262.23,202.31 260.35,200.33C258.48,198.34 255.35,198.25 253.36,200.13L238.35,214.31C236.87,215.7 236.4,217.85 237.15,219.73C237.89,221.61 239.72,222.85 241.74,222.85L275.95,222.85C293.53,222.85 299.19,205.96 299.42,205.25C300.26,202.66 298.85,199.9 296.27,199.04C293.68,198.19 290.89,199.6 290.02,202.17C289.87,202.61 286.27,212.96 275.95,212.96"/>
	<path class="st0" d="M146.24,49.17C149.3,51.75 151.05,55.52 151.05,59.52L151.05,84.84C151.05,87.96 148.51,90.5 145.39,90.5L17.48,90.5C14.36,90.5 11.82,87.96 11.82,84.84L11.82,59.52C11.82,55.52 13.57,51.75 16.63,49.17L24.02,42.94L25.97,44.64L33.22,51.07L82.68,51.07L129.65,51.07L136.9,44.65L138.85,42.94ZM145.55,106.2C145.55,107.15 144.78,107.93 143.83,107.93L130.34,107.93C129.39,107.93 128.61,107.15 128.61,106.2L128.61,97.16L145.39,97.16C145.45,97.16 145.5,97.16 145.55,97.16ZM34.82,106.2C34.82,107.15 34.05,107.93 33.1,107.93L19.61,107.93C18.66,107.93 17.88,107.15 17.88,106.2L17.88,97.16L34.82,97.16ZM38.79,13.4C40.59,8.8 43.9,6.66 49.18,6.66L82.68,6.66L113.69,6.66C118.97,6.66 122.28,8.8 124.14,13.52L134.75,37.65L127.12,44.41L82.68,44.41L35.75,44.41L28.12,37.65ZM162.88,34.06L162.88,27.4L146.51,27.4L140.02,33.07L130.29,10.96C127.47,3.79 121.73,0 113.69,0L82.68,0L49.18,0C41.15,0 35.41,3.79 32.64,10.84L22.85,33.07L16.37,27.4L0,27.4L0,34.06L13.87,34.06L18.95,38.51L12.34,44.07C7.78,47.92 5.16,53.55 5.16,59.52L5.16,84.84C5.16,89.35 7.6,93.28 11.22,95.43L11.22,106.2C11.22,110.82 14.98,114.59 19.61,114.59L33.1,114.59C37.72,114.59 41.49,110.82 41.49,106.2L41.49,97.16L121.95,97.16L121.95,106.2C121.95,110.82 125.71,114.59 130.34,114.59L143.83,114.59C148.45,114.59 152.22,110.82 152.22,106.2L152.22,95.09C155.53,92.88 157.72,89.11 157.72,84.84L157.72,59.52C157.72,53.55 155.1,47.92 150.53,44.07L143.93,38.51L149.01,34.06Z"/>
	<path class="st0" d="M109.7 78.13L53.17 78.13L53.17 84.8L109.7 84.8Z"/>
	<path class="st0" d="M57.68,70.89C58.18,69.63 57.86,68.18 56.87,67.24L46.75,57.69C45.41,56.42 43.3,56.48 42.04,57.82C40.78,59.16 40.84,61.27 42.17,62.53L46.2,66.33L31.53,66.33C24.6,66.33 22.16,59.4 22.05,59.07C21.48,57.33 19.6,56.38 17.86,56.94C16.11,57.51 15.15,59.38 15.72,61.13C15.87,61.62 19.69,73 31.53,73L54.58,73C55.95,73 57.17,72.16 57.68,70.89"/>
	<path class="st0" d="M131.34,66.33L116.67,66.33L120.7,62.53C122.04,61.27 122.1,59.16 120.83,57.82C119.57,56.48 117.46,56.42 116.12,57.69L106.01,67.24C105.01,68.18 104.69,69.63 105.2,70.89C105.7,72.16 106.93,73 108.29,73L131.34,73C143.18,73 147,61.62 147.15,61.13C147.72,59.39 146.77,57.53 145.03,56.96C143.29,56.38 141.41,57.33 140.82,59.06C140.72,59.36 138.29,66.33 131.34,66.33"/>
	<path class="st0" d="M387.24,49.17C390.3,51.75 392.05,55.52 392.05,59.52L392.05,84.84C392.05,87.96 389.51,90.5 386.39,90.5L258.48,90.5C255.36,90.5 252.82,87.96 252.82,84.84L252.82,59.52C252.82,55.52 254.57,51.75 257.63,49.17L265.02,42.94L266.97,44.64L274.22,51.07L323.68,51.07L370.65,51.07L377.9,44.65L379.85,42.94ZM386.55,106.2C386.55,107.15 385.78,107.93 384.83,107.93L371.34,107.93C370.39,107.93 369.61,107.15 369.61,106.2L369.61,97.16L386.39,97.16C386.45,97.16 386.5,97.16 386.55,97.16ZM275.82,106.2C275.82,107.15 275.05,107.93 274.1,107.93L260.61,107.93C259.66,107.93 258.88,107.15 258.88,106.2L258.88,97.16L275.82,97.16ZM279.79,13.4C281.59,8.8 284.9,6.66 290.18,6.66L323.68,6.66L354.69,6.66C359.97,6.66 363.28,8.8 365.14,13.52L375.75,37.65L368.12,44.41L323.68,44.41L276.75,44.41L269.12,37.65ZM403.88,34.06L403.88,27.4L387.51,27.4L381.02,33.07L371.29,10.96C368.47,3.79 362.73,0 354.69,0L323.68,0L290.18,0C282.15,0 276.41,3.79 273.64,10.84L263.85,33.07L257.37,27.4L241,27.4L241,34.06L254.86,34.06L259.95,38.51L253.34,44.07C248.77,47.92 246.16,53.55 246.16,59.52L246.16,84.84C246.16,89.35 248.6,93.28 252.22,95.43L252.22,106.2C252.22,110.82 255.98,114.59 260.61,114.59L274.1,114.59C278.72,114.59 282.49,110.82 282.49,106.2L282.49,97.16L362.95,97.16L362.95,106.2C362.95,110.82 366.71,114.59 371.34,114.59L384.83,114.59C389.45,114.59 393.22,110.82 393.22,106.2L393.22,95.09C396.53,92.88 398.72,89.11 398.72,84.84L398.72,59.52C398.72,53.55 396.1,47.92 391.53,44.07L384.93,38.51L390.01,34.06Z"/>
	<path class="st0" d="M350.7 78.13L294.17 78.13L294.17 84.8L350.7 84.8Z"/>
	<path class="st0" d="M298.68,70.89C299.18,69.63 298.86,68.18 297.87,67.24L287.75,57.69C286.41,56.42 284.3,56.48 283.04,57.82C281.78,59.16 281.84,61.27 283.17,62.53L287.2,66.33L272.53,66.33C265.6,66.33 263.16,59.4 263.05,59.07C262.48,57.33 260.6,56.38 258.86,56.94C257.11,57.51 256.15,59.38 256.72,61.13C256.87,61.62 260.69,73 272.53,73L295.58,73C296.95,73 298.17,72.16 298.68,70.89"/>
	<path class="st0" d="M372.34,66.33L357.67,66.33L361.7,62.53C363.03,61.27 363.1,59.16 361.83,57.82C360.57,56.48 358.46,56.42 357.12,57.69L347.01,67.24C346.01,68.18 345.69,69.63 346.2,70.89C346.7,72.16 347.93,73 349.29,73L372.34,73C384.18,73 388,61.62 388.15,61.13C388.72,59.39 387.77,57.53 386.03,56.96C384.29,56.38 382.41,57.33 381.82,59.06C381.72,59.36 379.29,66.33 372.34,66.33"/>
</svg>