<svg xmlns="http://www.w3.org/2000/svg" width="47" height="34" viewBox="0 0 89.99 65.22">
	<style type="text/css">
		.st0{fill:#000000;}
	</style>
	<path class="st0" d="M36.22,8.28C36.25,8.28 36.27,8.28 36.3,8.27L42.83,5.52C42.9,5.49 42.95,5.42 42.95,5.34L42.95,0.77C42.95,0.7 42.92,0.64 42.86,0.61C42.81,0.57 42.74,0.56 42.68,0.59L36.15,3.33C36.07,3.36 36.03,3.43 36.03,3.51L36.03,8.08C36.03,8.15 36.06,8.21 36.11,8.25C36.15,8.27 36.18,8.28 36.22,8.28"/>
	<path class="st0" d="M65.49,23.87C65.49,22.72 64.56,21.79 63.42,21.79L57.53,21.79C56.39,21.79 55.45,22.72 55.45,23.87L55.45,30.81C58.92,29.92 62.3,29.08 65.49,28.32Z"/>
	<path class="st0" d="M53.38,15.21C51.62,14.71 49,14.15 45.85,14L45.85,7.82C45.85,7.51 45.6,7.26 45.3,7.26L44.76,7.26L44.76,0.27C44.76,0.12 44.64,0 44.48,0L43.93,0C43.78,0 43.65,0.12 43.65,0.27L43.65,7.26L43.11,7.26C42.81,7.26 42.56,7.51 42.56,7.82L42.56,14C39.41,14.15 36.79,14.72 35.03,15.21L35.03,36.35C41.06,34.65 47.33,32.93 53.38,31.35Z"/>
	<path class="st0" d="M49.68,44.47C50.04,44.47 50.33,44.77 50.33,45.13C50.33,45.49 50.04,45.78 49.68,45.78C49.32,45.78 49.02,45.49 49.02,45.13C49.02,44.77 49.32,44.47 49.68,44.47"/>
	<path class="st0" d="M55.34,52.57C55.27,52.57 55.05,52.52 54.8,52.42C54.72,52.38 54.41,52.18 54.41,52.18C54.52,54.5 50.99,55.07 49.83,56.72C49.78,56.78 49.73,56.82 49.68,56.82C49.62,56.82 49.57,56.79 49.53,56.72C48.36,55.07 44.83,54.5 44.94,52.18C44.94,52.18 44.63,52.38 44.55,52.42C44.3,52.52 44.08,52.57 44.02,52.57C43.98,52.57 43.96,52.54 43.97,52.51C44.3,50.99 45.23,50.33 45.23,50.33C45.23,50.33 46.55,51.21 46.84,52.12C46.85,52.15 46.83,52.19 46.8,52.19C46.74,52.2 46.48,52.24 46.19,52.21C46.09,52.2 45.99,52.18 45.89,52.15C46.16,52.88 47.73,53.84 48.29,53.28C48.85,52.72 48.9,50.23 48.9,48.47L47.65,48.47C47.57,48.47 47.5,48.41 47.5,48.32L47.5,47.43C47.5,47.35 47.57,47.28 47.65,47.28L48.9,47.28L48.9,46.18C48.58,45.95 48.36,45.56 48.36,45.12C48.36,44.4 48.95,43.81 49.68,43.81C50.4,43.81 50.99,44.4 50.99,45.12C50.99,45.56 50.78,45.94 50.45,46.18L50.45,47.28L51.71,47.28C51.78,47.28 51.85,47.34 51.85,47.43L51.85,48.32C51.85,48.4 51.79,48.47 51.71,48.47L50.45,48.47C50.45,50.23 50.5,52.72 51.06,53.28C51.62,53.84 53.19,52.88 53.46,52.15C53.36,52.18 53.26,52.2 53.16,52.21C52.87,52.24 52.61,52.2 52.55,52.19C52.52,52.19 52.51,52.15 52.52,52.12C52.8,51.21 54.12,50.33 54.12,50.33C54.12,50.33 55.05,50.99 55.38,52.51C55.39,52.54 55.37,52.57 55.34,52.57M89.52,27.23C85.08,22.79 8.58,46.21 0.66,48.66C0.29,48.77 0,49.17 0,49.55L0,55.34C0,56.1 0.61,56.81 1.36,56.92L58.58,65.19C59.72,65.36 60.73,64.56 60.99,63.45C64.9,46.85 94.03,31.74 89.52,27.23"/>
	<path class="st0" d="M5.6,39.87L8.02,38.48L8.02,41.31L5.6,42.37ZM9.76,37.5L12.53,35.92L12.53,39.34L9.76,40.55ZM14.56,34.75L17.67,32.98L17.67,37.08L14.56,38.44ZM20.1,31.59L23.57,29.62L23.57,34.49L20.1,36.01ZM26.4,28L30.2,25.83L30.2,31.58L26.4,33.25ZM3.16,45.72C8.87,43.97 20.26,40.54 32.96,36.93L32.96,15.89C32.74,15.98 32.61,16.03 32.61,16.03L3.05,38.29C2.74,38.52 2.49,39.01 2.49,39.4L2.49,45.23C2.49,45.61 2.79,45.83 3.16,45.72"/>
</svg>