<svg xmlns="http://www.w3.org/2000/svg" width="63" height="38" viewBox="0 0 130 79.91">
	<style type="text/css">
		.st0{fill:#000000;}
	</style>
	<path class="st0" d="M128,42.2L102.88,42.2C102.42,42.2 102.04,41.82 102.04,41.36L102.04,27.55C102.04,27.08 102.42,26.71 102.88,26.71L121.01,26.71L127.14,33.8C127.69,34.44 128,35.26 128,36.1ZM128,64.9C128,65.97 127.12,66.85 126.05,66.85L121.89,66.85C121.38,60.66 116.19,55.78 109.88,55.78C103.56,55.78 98.37,60.66 97.86,66.85L90.37,66.85C91.23,65.84 91.76,64.54 91.76,63.11L91.76,19.55L113.28,19.55C114.27,19.55 115.2,19.98 115.84,20.72L119.28,24.71L102.88,24.71C101.31,24.71 100.04,25.98 100.04,27.55L100.04,41.36C100.04,42.92 101.31,44.2 102.88,44.2L128,44.2ZM119.94,67.85C119.94,73.4 115.43,77.92 109.88,77.92C104.33,77.92 99.82,73.41 99.81,67.86C99.81,67.86 99.81,67.85 99.81,67.85C99.81,67.84 99.81,67.84 99.81,67.83C99.82,62.29 104.33,57.78 109.88,57.78C115.43,57.78 119.94,62.29 119.94,67.84C119.94,67.84 119.94,67.85 119.94,67.85C119.94,67.85 119.94,67.85 119.94,67.85M89.76,49.3L21.77,49.3L21.77,42.02L30.58,42.02C31.13,42.02 31.58,41.57 31.58,41.02C31.58,40.47 31.13,40.02 30.58,40.02L21.77,40.02L21.77,31.81L37.58,31.81C38.13,31.81 38.58,31.36 38.58,30.81C38.58,30.26 38.13,29.81 37.58,29.81L21.77,29.81L21.77,21.6L44.58,21.6C45.13,21.6 45.58,21.15 45.58,20.6C45.58,20.05 45.13,19.6 44.58,19.6L21.77,19.6L21.77,11.39L61.58,11.39C62.13,11.39 62.58,10.94 62.58,10.39C62.58,9.84 62.13,9.39 61.58,9.39L21.77,9.39L21.77,5.73C21.77,3.67 23.45,2 25.51,2L86.02,2C88.08,2 89.76,3.67 89.76,5.73ZM89.76,63.11C89.76,65.17 88.08,66.85 86.02,66.85L59.11,66.85C58.6,60.66 53.41,55.78 47.1,55.78C40.78,55.78 35.59,60.66 35.08,66.85L25.51,66.85C23.45,66.85 21.77,65.17 21.77,63.11L21.77,51.3L89.76,51.3ZM47.1,77.92C41.55,77.92 37.03,73.4 37.03,67.85C37.03,62.3 41.55,57.78 47.1,57.78C52.65,57.78 57.16,62.3 57.16,67.85C57.16,73.4 52.65,77.92 47.1,77.92M117.35,19.41C116.33,18.23 114.84,17.55 113.28,17.55L91.76,17.55L91.76,5.73C91.76,2.57 89.18,0 86.02,0L25.51,0C22.34,0 19.77,2.57 19.77,5.73L19.77,9.39L10,9.39C9.44,9.39 9,9.84 9,10.39C9,10.94 9.44,11.39 10,11.39L19.77,11.39L19.77,19.6L7,19.6C6.44,19.6 6,20.05 6,20.6C6,21.15 6.44,21.6 7,21.6L19.77,21.6L19.77,29.81L5,29.81C4.44,29.81 4,30.26 4,30.81C4,31.36 4.44,31.81 5,31.81L19.77,31.81L19.77,40.02L1,40.02C0.44,40.02 0,40.47 0,41.02C0,41.57 0.44,42.02 1,42.02L19.77,42.02L19.77,63.11C19.77,66.27 22.34,68.85 25.51,68.85L35.08,68.85C35.59,75.03 40.78,79.92 47.1,79.92C53.41,79.92 58.6,75.03 59.11,68.85L86.02,68.85L97.86,68.85C98.37,75.03 103.56,79.92 109.88,79.92C116.19,79.92 121.38,75.03 121.89,68.85L126.05,68.85C128.22,68.85 130,67.08 130,64.9L130,36.1C130,34.78 129.52,33.5 128.65,32.5Z"/>
	<path class="st0" d="M109.88,71.08C108.09,71.08 106.64,69.63 106.64,67.85C106.64,66.06 108.09,64.61 109.88,64.61C111.66,64.61 113.11,66.06 113.11,67.85C113.11,69.63 111.66,71.08 109.88,71.08M109.88,62.61C106.99,62.61 104.64,64.96 104.64,67.85C104.64,70.73 106.99,73.08 109.88,73.08C112.76,73.08 115.11,70.73 115.11,67.85C115.11,64.96 112.76,62.61 109.88,62.61"/>
	<path class="st0" d="M47.1,71.08C45.31,71.08 43.86,69.63 43.86,67.85C43.86,66.06 45.31,64.61 47.1,64.61C48.88,64.61 50.33,66.06 50.33,67.85C50.33,69.63 48.88,71.08 47.1,71.08M47.1,62.61C44.21,62.61 41.86,64.96 41.86,67.85C41.86,70.73 44.21,73.08 47.1,73.08C49.98,73.08 52.33,70.73 52.33,67.85C52.33,64.96 49.98,62.61 47.1,62.61"/>
</svg>