<svg xmlns="http://www.w3.org/2000/svg" width="46" height="51" viewBox="0 0 151.61 169.02">
	<style type="text/css">
		.st0{fill:#000000;}
	</style>
	<path class="st0" d="M118.12,134.92C117.02,134.82 115.92,135.42 115.52,136.42L105.42,161.12L88.52,131.82L96.32,132.82C97.02,132.92 97.72,132.72 98.32,132.22L113.32,118.12L128.12,110.02L144.62,138.62ZM75.82,125.32L75.52,125.32L67.42,126.32L55.92,127.82L41.52,114.22C41.42,114.12 41.22,113.92 41.02,113.82L23.82,104.42L23.62,104.32L19.92,84.82C19.92,84.62 19.82,84.42 19.72,84.22L11.32,66.32L19.72,48.52C19.82,48.32 19.92,48.12 19.92,47.92L23.62,28.42L41.02,18.92C41.22,18.82 41.32,18.72 41.52,18.52L55.92,4.92L75.52,7.42L76.12,7.42L95.72,4.92L110.22,18.52C110.32,18.62 110.52,18.82 110.72,18.92L128.12,28.42L131.82,47.92C131.82,48.12 131.92,48.32 132.02,48.52L140.42,66.42L132.02,84.32C131.92,84.52 131.82,84.72 131.82,84.92L128.12,104.42L127.92,104.52L110.82,113.92C110.62,114.02 110.52,114.12 110.32,114.32L95.92,127.92L84.42,126.42L76.32,125.42C76.02,125.32 75.92,125.32 75.82,125.32M46.22,161.12L36.12,136.42C35.72,135.52 34.82,134.92 33.92,134.92L33.62,134.92L7.02,138.52L23.52,109.92L38.32,118.02L53.32,132.12C53.42,132.22 53.62,132.32 53.72,132.42C53.72,132.42 53.82,132.42 53.82,132.52C53.92,132.62 54.02,132.62 54.12,132.62L54.32,132.62C54.42,132.62 54.52,132.72 54.62,132.72L54.82,132.72L54.92,132.72L55.22,132.72L63.02,131.72ZM151.22,140.32L132.12,107.32C132.32,107.02 132.42,106.72 132.52,106.42L136.42,86.12L145.22,67.42C145.52,66.72 145.52,66.02 145.22,65.32L136.42,46.62L132.52,26.32C132.42,25.62 131.92,25.02 131.32,24.62L113.22,14.72L98.22,0.62C97.72,0.12 97.02,-0.07 96.22,0.02L75.82,2.62L55.32,0.02C54.62,-0.07 53.92,0.12 53.32,0.62L38.32,14.72L20.22,24.62C19.62,24.92 19.12,25.62 19.02,26.32L15.12,46.62L6.32,65.32C6.02,66.02 6.02,66.72 6.32,67.42L15.12,86.12L19.02,106.42C19.12,106.72 19.22,107.12 19.42,107.32L0.32,140.32C-0.17,141.12 -0.07,142.12 0.42,142.92C0.92,143.72 1.82,144.12 2.72,144.02L32.22,140.02L43.62,167.52C44.02,168.42 44.82,168.92 45.72,169.02L45.92,169.02C46.82,169.02 47.62,168.52 48.02,167.82L69.32,131.02L75.92,130.22L82.52,131.02L103.82,167.82C104.22,168.62 105.02,169.02 105.92,169.02L106.12,169.02C107.02,168.92 107.82,168.42 108.22,167.52L119.52,139.92L149.02,143.92C149.92,144.02 150.82,143.62 151.32,142.82C151.72,142.12 151.72,141.12 151.22,140.32"/>
	<path class="st0" d="M75.82,111.62C50.82,111.62 30.52,91.32 30.52,66.32C30.52,41.32 50.82,21.02 75.82,21.02C100.82,21.02 121.12,41.32 121.12,66.32C121.12,91.32 100.82,111.62 75.82,111.62M125.92,66.42C125.92,38.82 103.42,16.32 75.82,16.32C48.22,16.32 25.72,38.82 25.72,66.42C25.72,94.02 48.22,116.52 75.82,116.52C103.42,116.52 125.92,94.02 125.92,66.42"/>
	<path class="st0" d="M91.42,73.72C90.82,74.32 90.62,75.12 90.72,75.82L93.92,94.62L77.02,85.82C76.32,85.42 75.52,85.42 74.82,85.82L57.92,94.62L61.12,75.82C61.22,75.02 61.02,74.22 60.42,73.72L46.82,60.32L65.72,57.52C66.52,57.42 67.22,56.92 67.52,56.22L76.02,39.12L84.52,56.22C84.92,56.92 85.52,57.42 86.32,57.52L105.22,60.32ZM112.52,57.92C112.22,57.02 111.52,56.42 110.52,56.32L88.02,53.02L77.92,32.72C77.12,31.02 74.42,31.02 73.62,32.72L63.52,53.02L41.02,56.32C40.12,56.42 39.32,57.12 39.02,57.92C38.72,58.82 39.02,59.72 39.62,60.42L55.82,76.32L52.02,98.72C51.82,99.62 52.22,100.52 53.02,101.12C53.72,101.62 54.72,101.72 55.52,101.32L75.62,90.82L95.72,101.32C96.12,101.52 96.42,101.62 96.82,101.62C97.32,101.62 97.82,101.42 98.22,101.12C98.92,100.62 99.32,99.62 99.22,98.72L95.42,76.32L111.62,60.42C112.52,59.72 112.82,58.82 112.52,57.92"/>
</svg>