<svg  xmlns="http://www.w3.org/2000/svg" width="19" height="19" viewBox="0 0 511.97 511.98">

	<path fill="#ffc001"  class="st0" d="M58.02,204.83C58.02,123.77 123.74,58.09 204.78,58.09C285.84,58.09 351.55,123.77 351.55,204.83C351.55,285.89 285.84,351.61 204.78,351.61C123.74,351.61 58.02,285.89 58.02,204.83M511.97,454.07L375.63,317.73C397.08,285.33 409.57,246.55 409.57,204.8C409.57,91.68 317.88,0 204.78,0C91.68,0 0,91.68 0,204.8C0,317.89 91.68,409.61 204.78,409.61C246.51,409.61 285.34,397.08 317.71,375.64L454.05,511.98Z"/>
</svg>