<svg xmlns="http://www.w3.org/2000/svg" width="116.46" height="92.44" viewBox="0 0 116.46 92.44">
	<style type="text/css">
		.st0{fill:#000000;}
	</style>
	<path class="st0" d="M83.97,60.34C83.34,60.75 82.74,61.19 82.18,61.67L68.82,71.58L5.31,71.58C4.38,68.04 5.47,54.14 9.53,47.04C10.53,45.28 11.63,44.23 12.45,44.23L13.35,44.23L43.1,44.23C42.89,47.8 43.13,53.84 46.44,57.79C48.55,60.3 51.61,61.62 55.3,61.62L68.76,61.62C72.02,61.62 74.76,60.19 76.7,57.47C82.01,50 80.49,33.76 77.82,21.2C84.17,29.74 92.76,42.12 96.38,51.13ZM105.91,74.98C105.91,81.85 100.32,87.44 93.45,87.44C86.58,87.44 80.99,81.85 80.99,74.98C80.99,71.23 82.66,67.87 85.29,65.59L86.83,64.44C88.75,63.23 91.01,62.52 93.45,62.52C100.32,62.52 105.91,68.11 105.91,74.98M26.7,86.99C20.53,86.99 15.4,82.48 14.42,76.58L38.97,76.58C37.99,82.48 32.87,86.99 26.7,86.99M10.88,35.06C10.88,33.7 11.99,32.59 13.35,32.59L43.18,32.59C44.54,32.59 45.65,33.7 45.65,35.06L45.65,36.75C45.65,38.12 44.54,39.23 43.18,39.23L13.35,39.23C11.99,39.23 10.88,38.12 10.88,36.75ZM81.83,5.27L81.83,14.31C78.83,13.63 76.56,11.81 76.56,9.79C76.56,7.77 78.83,5.94 81.83,5.27M112.13,65.02L116.46,62.52C113.14,56.79 107.79,52.56 101.54,50.64C98.17,41.36 89.52,28.61 82.81,19.51C83.31,19.55 83.82,19.58 84.33,19.58C85.72,19.58 86.83,18.46 86.83,17.08L86.83,2.49C86.83,1.11 85.72,0 84.33,0C78.3,0 73.38,3.05 71.98,7.29L57.97,7.29C56.59,7.29 55.47,8.41 55.47,9.79C55.47,11.17 56.59,12.29 57.97,12.29L70.35,12.29C74.72,25.92 77.59,47.59 72.62,54.57C71.63,55.97 70.4,56.62 68.76,56.62L55.3,56.62C53.08,56.62 51.44,55.95 50.28,54.58C47.49,51.27 47.94,44.49 48.34,42.16C48.34,42.15 48.34,42.15 48.34,42.14C49.76,40.78 50.65,38.87 50.65,36.75L50.65,35.06C50.65,30.94 47.3,27.59 43.18,27.59L13.35,27.59C9.23,27.59 5.88,30.94 5.88,35.06L5.88,36.75C5.88,38.53 6.5,40.16 7.54,41.44C1.89,47 0,61.59 0,67.68C0,69.84 0.17,71.6 0.52,72.93C1.35,76.11 3.23,76.58 4.28,76.58L9.37,76.58C10.39,85.25 17.76,91.99 26.7,91.99C35.63,91.99 43.01,85.25 44.03,76.58L69.64,76.58C70.18,76.58 70.7,76.41 71.13,76.09L76.21,72.32C76.08,73.19 75.99,74.07 75.99,74.98C75.99,84.61 83.82,92.44 93.45,92.44C103.08,92.44 110.91,84.61 110.91,74.98C110.91,66.19 104.37,58.91 95.9,57.71L99.3,55.19C104.68,56.62 109.31,60.15 112.13,65.02"/>
	<path class="st0" d="M31.5,53.18L16.11,53.18L16.11,58.18L31.61,58.18C31.64,58.19 33.73,58.15 35.11,59.5C36.04,60.42 36.52,61.85 36.52,63.77L41.52,63.77C41.52,60.42 40.52,57.76 38.55,55.87C35.77,53.2 32.14,53.16 31.5,53.18"/>
</svg>