<svg xmlns="http://www.w3.org/2000/svg" width="122.22" height="85.99" viewBox="0 0 122.22 85.99">
	<style type="text/css">
		.st0{fill:#000000;}
	</style>
	<path class="st0" d="M109.74,36.9C112.03,38.83 113.35,41.66 113.35,44.66L113.35,63.66C113.35,66 111.44,67.91 109.1,67.91L13.12,67.91C10.77,67.91 8.87,66 8.87,63.66L8.87,44.66C8.87,41.66 10.18,38.83 12.48,36.9L18.03,32.22L19.49,33.5L24.93,38.32L62.04,38.32L97.29,38.32L102.72,33.5L104.19,32.22ZM109.22,79.69C109.22,80.4 108.64,80.99 107.92,80.99L97.8,80.99C97.09,80.99 96.51,80.4 96.51,79.69L96.51,72.91L109.1,72.91C109.14,72.91 109.18,72.9 109.22,72.9ZM26.13,79.69C26.13,80.4 25.55,80.99 24.83,80.99L14.71,80.99C14,80.99 13.42,80.4 13.42,79.69L13.42,72.91L26.13,72.91ZM29.1,10.05C30.46,6.6 32.94,5 36.91,5L62.04,5L85.31,5C89.28,5 91.75,6.6 93.15,10.15L101.11,28.25L95.39,33.32L62.04,33.32L26.83,33.32L21.1,28.25ZM122.22,25.56L122.22,20.56L109.94,20.56L105.07,24.82L97.76,8.22C95.65,2.84 91.34,0 85.31,0L62.04,0L36.91,0C30.87,0 26.57,2.84 24.49,8.13L17.15,24.82L12.28,20.56L0,20.56L0,25.56L10.4,25.56L14.22,28.89L9.26,33.07C5.83,35.96 3.87,40.18 3.87,44.66L3.87,63.66C3.87,67.04 5.7,70 8.42,71.61L8.42,79.69C8.42,83.16 11.24,85.99 14.71,85.99L24.83,85.99C28.31,85.99 31.13,83.16 31.13,79.69L31.13,72.91L91.51,72.91L91.51,79.69C91.51,83.16 94.33,85.99 97.8,85.99L107.92,85.99C111.4,85.99 114.22,83.16 114.22,79.69L114.22,71.36C116.71,69.7 118.35,66.87 118.35,63.66L118.35,44.66C118.35,40.18 116.38,35.96 112.96,33.07L108,28.89L111.81,25.56Z"/>
	<path class="st0" d="M82.31 58.63L39.9 58.63L39.9 63.63L82.31 63.63Z"/>
	<path class="st0" d="M43.28,53.2C43.66,52.24 43.42,51.16 42.67,50.46L35.08,43.29C34.08,42.34 32.49,42.38 31.55,43.39C30.6,44.39 30.64,45.97 31.65,46.92L34.67,49.77L23.66,49.77C18.46,49.77 16.63,44.57 16.55,44.32C16.12,43.01 14.71,42.3 13.4,42.72C12.09,43.15 11.37,44.56 11.79,45.87C11.91,46.24 14.78,54.77 23.66,54.77L40.96,54.77C41.98,54.77 42.9,54.15 43.28,53.2"/>
	<path class="st0" d="M98.55,49.77L87.55,49.77L90.57,46.92C91.57,45.97 91.62,44.39 90.67,43.39C89.72,42.38 88.14,42.34 87.14,43.29L79.54,50.46C78.8,51.16 78.56,52.25 78.94,53.2C79.32,54.15 80.24,54.77 81.26,54.77L98.55,54.77C107.44,54.77 110.3,46.24 110.42,45.87C110.85,44.57 110.13,43.17 108.83,42.74C107.52,42.3 106.11,43.02 105.67,44.32C105.59,44.54 103.77,49.77 98.55,49.77"/>
</svg>