<svg xmlns="http://www.w3.org/2000/svg" width="72" height="35" viewBox="0 0 151.28 73.1">
	<path class="st0" d="M145.29,49.93C144.23,55.9 144.17,56.26 139.08,56.26C133.9,56.26 129.54,56.41 126.99,56.53C125.79,49.99 120.06,45.01 113.18,45.01C106.26,45.01 100.5,50.05 99.36,56.65L47.12,56.65L47.12,56.97C46.11,50.21 40.28,45.01 33.25,45.01C26.32,45.01 20.57,50.05 19.42,56.65L12.45,56.65C5.54,56.65 4.99,48.82 4.99,38.58C4.99,32.65 6.48,27.77 7.31,25.5C10.21,25.39 16.19,25.17 18.32,25.17C19.97,25.17 20.97,23.97 23.16,21.34C27.36,16.29 36.11,5.77 48.67,5.77C51.16,5.77 55.76,5.59 60.63,5.4C65.72,5.2 70.98,5 73.89,5C85.94,5 100.02,15.66 107.25,21.92L74.15,21.92L74.15,12.97L69.15,12.97L69.15,21.92L51.97,21.92C42.44,21.92 40.8,15.21 40.65,14.46L35.74,15.36C36.47,19.36 40.81,26.92 51.97,26.92L112.62,26.92L112.64,26.94L113.43,27.08C113.59,27.1 128.75,29.75 134.99,31.31C140.24,32.62 146.12,38.68 146.28,44.91C145.85,46.83 145.56,48.47 145.29,49.93M113.18,68.1C108.2,68.1 104.14,64.04 104.14,59.05C104.14,54.06 108.2,50.01 113.18,50.01C118.17,50.01 122.23,54.06 122.23,59.05C122.23,64.04 118.17,68.1 113.18,68.1M33.25,68.1C28.26,68.1 24.2,64.04 24.2,59.05C24.2,54.06 28.26,50.01 33.25,50.01C38.23,50.01 42.29,54.06 42.29,59.05C42.29,64.04 38.23,68.1 33.25,68.1M136.2,26.46C130.54,25.04 118.3,22.86 115.07,22.29C111.37,18.66 91.49,0 73.89,0C70.88,0 65.57,0.2 60.44,0.4C55.62,0.59 51.06,0.77 48.67,0.77C33.77,0.77 24.01,12.5 19.32,18.14C18.69,18.89 18,19.73 17.57,20.18C14.02,20.23 5.87,20.55 5.5,20.56L3.98,20.62L3.34,22C3.2,22.29 0,29.21 0,38.58C0,47.77 0,61.65 12.45,61.65L19.45,61.65C20.68,68.16 26.39,73.1 33.25,73.1C40.28,73.1 46.11,67.89 47.12,61.13L47.12,61.65L99.39,61.65C100.61,68.16 106.33,73.1 113.18,73.1C120.08,73.1 125.82,68.1 126.99,61.54C129.46,61.42 133.88,61.26 139.08,61.26C148.35,61.26 149.1,57.1 150.22,50.81C150.48,49.33 150.78,47.66 151.22,45.74L151.29,45.46L151.29,45.18C151.29,36.24 143.48,28.28 136.2,26.46"/>
</svg>