<svg xmlns="http://www.w3.org/2000/svg" width="38" height="35" viewBox="0 0 90 84">
	<style type="text/css">
		.st0{fill:#000000;}
	</style>
	<path class="st0" d="M24.46,30.86L27.85,27.77C29.17,26.56 31.22,26.66 32.41,27.98L48.16,45.44C49.35,46.77 49.25,48.83 47.93,50.03L44.54,53.13C43.22,54.33 41.17,54.22 39.98,52.9L24.23,35.44C23.04,34.12 23.14,32.06 24.46,30.86M69.51,25.97L53.77,8.52C52.57,7.2 52.67,5.13 53.99,3.93L57.38,0.83C58.7,-0.36 60.75,-0.25 61.95,1.06L77.69,18.51C78.88,19.84 78.78,21.91 77.47,23.11L74.08,26.2C72.76,27.4 70.7,27.29 69.51,25.97M89.58,62.34C90.18,63 90.12,64.03 89.46,64.63L84.48,69.18C83.82,69.78 82.79,69.73 82.19,69.07L59.05,43.41C58.46,42.75 58.51,41.72 59.16,41.11L59.56,40.75L56.27,37.1L48.89,43.83L34.08,27.42L53.04,10.13L67.84,26.54L60.46,33.28L63.76,36.93L64.15,36.57C64.81,35.97 65.84,36.02 66.44,36.68ZM58.78,73.91C61.56,73.91 63.8,76.16 63.8,78.95C63.8,81.74 61.56,83.99 58.78,83.99L10.64,83.99C7.88,83.99 5.63,81.74 5.63,78.95C5.63,76.16 7.88,73.91 10.64,73.91ZM6.66,55.78L0,51.71L8.07,51.91L5.43,42.39L12.55,47.65L13.96,41.67L23.4,58.77L1.69,60.16Z"/>
</svg>