<svg width="19" height="37" xmlns="http://www.w3.org/2000/svg" viewBox="0 0 49.99 95">
	<style type="text/css">
		.st0{fill:#000000;}
	</style>
	<path   class="st0" d="M28.39,41.2L21.59,41.2C16.29,41.2 12.09,36.6 12.69,31.3C13.19,26.6 17.49,23.3 22.19,23.3L30.19,23.3C33.19,23.3 35.69,25.4 36.29,28.2C36.49,29 37.19,29.5 37.99,29.5L46.99,29.5C47.99,29.5 48.89,28.6 48.79,27.6C47.89,18.5 40.49,11.4 31.29,10.8L31.29,1.8C31.29,0.8 30.49,0 29.49,0L20.49,0C19.49,0 18.69,0.8 18.69,1.8L18.69,10.9C7.49,12.4 -1,22.5 0.09,34.4C1.19,45.6 11.29,53.8 22.49,53.8L28.39,53.8C33.69,53.8 37.89,58.4 37.29,63.7C36.79,68.4 32.49,71.7 27.79,71.7L19.79,71.7C16.79,71.7 14.29,69.59 13.69,66.8C13.49,66 12.79,65.5 11.99,65.5L2.99,65.5C1.99,65.5 1.09,66.4 1.19,67.4C2.09,76.5 9.49,83.59 18.69,84.2L18.69,93.2C18.69,94.2 19.49,95 20.49,95L29.49,95C30.49,95 31.29,94.2 31.29,93.2L31.29,84C40.89,82.4 48.89,74.9 49.89,65C51.09,52.1 40.99,41.2 28.39,41.2"/>
</svg>