<svg xmlns="http://www.w3.org/2000/svg" width="100" height="80.29" viewBox="0 0 100 80.29">
	<style type="text/css">
		.st0{fill:#000000;}
	</style>
	<path class="st0" d="M0,62.81C1.48,71.63 8.01,74.31 8.01,74.31L11.29,71.63C11.29,71.63 8.01,69.39 7.38,66.05L94.23,58.6C94.23,58.6 95.66,64.78 88.13,66.05L90.61,69.39C99.99,69.39 99.99,53.61 99.99,53.61ZM42.4,18.24C42.4,18.24 39.27,34.23 34.02,42.62C28.78,51 20.6,55.65 20.6,55.65L27.12,54.85C27.12,54.85 38.51,48.97 40.81,34.03C40.81,44.87 40.02,53.28 40.02,53.28L44.51,52.73ZM48.29,31.72C47.92,22.71 41.32,0 41.32,0C41.32,0 57.46,13.74 66.32,24.7C75.17,35.67 82.48,49.32 82.48,49.32L77.82,49.32C77.82,49.32 67.54,27.83 48.29,11.65C54.26,30.05 52.86,51.37 52.86,51.37L48.29,51.96C48.29,51.96 48.67,40.87 48.29,31.72M84.91,79.18C80.74,76.46 78.86,74.2 69.65,74.2C63.4,74.2 57.3,78.73 51.05,78.73C44.84,78.73 38.65,74.2 32.44,74.2C25.45,74.2 20.27,77.61 17.25,79.61C13.38,81.97 11.31,77.64 14.41,75.51C14.41,75.51 20.39,69.71 32.77,69.71C39.56,69.71 44.27,74.2 51.05,74.2C58.05,74.2 62.65,69.71 69.65,69.71C81.29,69.71 88.15,75.51 88.15,75.51C91.28,77.91 87.95,81.71 84.91,79.18"/>
</svg>